<?xml version="1.0"?>
<svg xmlns="http://www.w3.org/2000/svg" width="1233" height="3254" viewBox="0 0 1233 3254" fill="none">
<path d="M-53.7308 1.00699C-55.9363 1.13454 -57.6207 3.02581 -57.4932 5.23126C-57.3656 7.43672 -55.4744 9.1212 -53.2688 8.99365L-53.7308 1.00699ZM689.394 1541.92L689.396 1537.92L689.394 1541.92ZM357.924 2051.27L357.214 2055.21L357.924 2051.27ZM553.805 2723.6L555.873 2727.02L553.805 2723.6ZM490.666 4378.54L491.032 4374.56L490.666 4378.54ZM107.658 4173.54L103.787 4172.54L107.658 4173.54ZM572.651 1286.85L576.309 1285.23L572.651 1286.85ZM689.396 1537.92C548.539 1537.85 424.868 1513.33 336.558 1469.51C248.211 1425.67 196.013 1362.98 195.965 1286.65L187.965 1286.65C188.016 1367.28 243.284 1432.15 333.002 1476.67C422.758 1521.21 547.752 1545.85 689.392 1545.92L689.396 1537.92ZM-53.2688 8.99365C16.8485 4.93859 103.36 23.0376 196 57.5022C288.58 91.9446 387.004 142.628 480.856 203.457C668.712 325.214 837.551 487.161 904.839 640.111L912.161 636.889C843.949 481.839 673.58 318.836 485.207 196.743C390.944 135.648 291.998 84.6806 198.789 50.0043C105.64 15.3502 17.9434 -3.1381 -53.7308 1.00699L-53.2688 8.99365ZM904.839 640.111C972.344 793.554 1016.14 1018.74 993.893 1205.31C982.77 1298.58 955.186 1381.81 906.207 1441.62C857.358 1501.28 786.983 1537.97 689.396 1537.92L689.392 1545.92C789.278 1545.97 861.965 1508.28 912.397 1446.69C962.698 1385.26 990.614 1300.37 1001.84 1206.26C1024.28 1018.07 980.157 791.447 912.161 636.889L904.839 640.111ZM1099.58 3800.76C1092.77 3877.61 1032.55 3925.98 942.74 3958.48C853.015 3990.96 735.199 4007.03 615.978 4020.08C496.997 4033.11 376.584 4043.12 282.475 4063.6C235.406 4073.84 194.595 4086.76 163.676 4104.16C132.737 4121.57 111.274 4143.71 103.787 4172.54L111.53 4174.55C118.27 4148.6 137.722 4127.94 167.599 4111.13C197.497 4094.3 237.406 4081.59 284.176 4071.42C377.743 4051.06 497.479 4041.1 616.849 4028.03C735.977 4014.99 854.711 3998.85 945.462 3966C1036.13 3933.19 1100.31 3883.13 1107.55 3801.47L1099.58 3800.76ZM103.787 4172.54C95.8213 4203.2 102.368 4230.67 120.152 4254.71C137.818 4278.59 166.476 4298.98 202.676 4316.11C275.093 4350.39 379.022 4372.29 490.299 4382.53L491.032 4374.56C380.139 4364.36 277.284 4342.58 206.099 4308.88C170.498 4292.03 143.151 4272.35 126.583 4249.96C110.132 4227.72 104.214 4202.71 111.53 4174.55L103.787 4172.54ZM490.299 4382.53C626.261 4395.04 719.041 4413.87 776.645 4438.39C805.437 4450.64 825.115 4464.18 837.058 4478.76C848.895 4493.21 853.254 4508.82 851.221 4525.77C849.168 4542.88 840.55 4561.64 825.827 4582.06C811.125 4602.46 790.516 4624.25 764.852 4647.39C713.518 4693.68 642.372 4745.01 558.919 4800.96L563.373 4807.61C646.879 4751.63 718.425 4700.03 770.209 4653.33C796.104 4629.98 817.16 4607.76 832.317 4586.74C847.452 4565.75 856.887 4545.7 859.164 4526.72C861.463 4507.57 856.433 4489.79 843.247 4473.69C830.168 4457.73 809.19 4443.55 779.778 4431.03C720.976 4406 627.161 4387.08 491.032 4374.56L490.299 4382.53ZM195.965 1286.65C195.942 1248.92 214.275 1220 243.244 1200.21C272.332 1180.34 312.151 1169.7 354.549 1169.07C439.518 1167.81 532.828 1206.68 568.993 1288.46L576.309 1285.23C538.39 1199.48 441.308 1159.78 354.43 1161.07C310.905 1161.71 269.437 1172.62 238.731 1193.6C207.906 1214.67 187.94 1245.91 187.965 1286.65L195.965 1286.65ZM568.993 1288.46C576.871 1306.28 573.629 1330.18 561.391 1359.41C549.218 1388.49 528.526 1421.94 502.943 1458.25C477.381 1494.53 447.08 1533.45 415.79 1573.49C384.523 1613.5 352.276 1654.61 322.925 1695.14C293.577 1735.66 267.049 1775.7 247.232 1813.6C227.44 1851.46 214.191 1887.48 211.689 1919.89C209.175 1952.47 217.528 1981.51 240.936 2004.86C264.187 2028.06 301.882 2045.23 357.214 2055.21L358.634 2047.34C304.075 2037.5 268.206 2020.77 246.586 1999.2C225.122 1977.79 217.297 1951.19 219.666 1920.51C222.047 1889.66 234.742 1854.76 254.322 1817.31C273.879 1779.9 300.152 1740.22 329.404 1699.83C358.651 1659.45 390.8 1618.46 422.093 1578.42C453.363 1538.41 483.787 1499.32 509.482 1462.86C535.157 1426.42 556.254 1392.4 568.771 1362.5C581.224 1332.76 585.573 1306.18 576.309 1285.23L568.993 1288.46ZM558.919 4800.96C475.207 4857.08 433.296 4912 429.516 4963.42C425.711 5015.19 460.608 5061.36 525.142 5099.65C654.247 5176.26 906.569 5224.33 1232.81 5224.5L1232.82 5216.5C906.853 5216.33 656.381 5168.22 529.224 5092.77C465.626 5055.04 434.026 5011.21 437.495 4964.01C440.99 4916.46 480.125 4863.42 563.373 4807.61L558.919 4800.96ZM357.214 2055.21C528.838 2086.15 648.745 2130.05 726.602 2181.6C804.375 2233.11 839.901 2292.03 843.643 2353.24C847.398 2414.64 819.242 2479.34 767.484 2542.4C715.762 2605.41 640.777 2666.38 551.736 2720.17L555.873 2727.02C645.433 2672.91 721.204 2611.39 773.668 2547.47C826.095 2483.6 855.554 2416.96 851.628 2352.75C847.691 2288.35 810.241 2227.4 731.019 2174.94C651.879 2122.53 530.771 2078.37 358.634 2047.34L357.214 2055.21ZM618.949 3203.8C554.678 3225.5 513.8 3246.29 491.949 3266.96C480.961 3277.35 474.521 3287.96 472.593 3298.88C470.655 3309.86 473.379 3320.58 479.61 3330.94C491.902 3351.4 518.362 3371.35 552.866 3391.44C587.54 3411.62 631.045 3432.34 678.171 3454.11C772.599 3497.72 881.661 3545.59 965.44 3602.32C1049.44 3659.2 1106.4 3723.9 1099.58 3800.76L1107.55 3801.47C1114.79 3719.81 1054.16 3652.73 969.925 3595.7C885.466 3538.51 775.641 3490.31 681.525 3446.85C634.378 3425.07 591.196 3404.49 556.892 3384.52C522.418 3364.45 497.61 3345.37 486.467 3326.82C480.98 3317.69 478.945 3308.92 480.471 3300.27C482.008 3291.56 487.256 3282.41 497.446 3272.77C517.95 3253.38 557.385 3233.03 621.508 3211.38L618.949 3203.8ZM551.736 2720.17C487.366 2759.06 447.687 2793.37 426.947 2824.14C406.043 2855.15 404.268 2882.8 416.124 2907.48C427.777 2931.74 452.302 2952.48 482.456 2970.8C512.704 2989.19 549.194 3005.49 585.466 3020.64C621.86 3035.83 657.915 3049.82 687.795 3063.71C702.707 3070.65 715.949 3077.5 726.804 3084.39C737.698 3091.31 745.953 3098.12 751.106 3104.89C756.201 3111.58 758.09 3117.97 756.867 3124.39C755.614 3130.97 750.949 3138.39 741.171 3146.7C721.552 3163.37 683.117 3182.14 618.949 3203.8L621.508 3211.38C685.733 3189.7 725.468 3170.54 746.351 3152.8C756.823 3143.9 762.992 3134.99 764.725 3125.89C766.489 3116.63 763.516 3107.98 757.471 3100.04C751.486 3092.18 742.323 3084.77 731.092 3077.64C719.821 3070.48 706.228 3063.46 691.168 3056.46C661.101 3042.47 624.655 3028.33 588.548 3013.25C552.318 2998.13 516.307 2982.02 486.611 2963.97C456.82 2945.86 433.957 2926.13 423.335 2904.02C412.915 2882.32 413.978 2857.69 433.581 2828.61C453.347 2799.29 491.843 2765.71 555.873 2727.02L551.736 2720.17Z" fill="#00FF84"/>
</svg>
